<?xml version="1.0" encoding="utf-8"?>
<!-- Generator: Adobe Illustrator 28.4.1, SVG Export Plug-In . SVG Version: 6.00 Build 0)  -->
<svg version="1.1" id="Layer_1" xmlns="http://www.w3.org/2000/svg" xmlns:xlink="http://www.w3.org/1999/xlink" x="0px" y="0px"
	 viewBox="0 0 1080 1080" enable-background="new 0 0 1080 1080" xml:space="preserve">
<g>
	<g>
		<path fill="#4998D3" d="M544.95,671.38h-10.52V329.22h10.52V671.38z M568.21,663.98h-10.52V329.31h10.52V663.98z M521.35,663.98
			h-10.52V329.22h10.52V663.98z"/>
		<path fill="#0057AC" d="M539.83,774.05c74.27,0,134.95-63.85,134.95-143.87l0.06-309.51v-5.66h-6.47h-72.81h-6.46v5.66v324.1
			c0,34.76-24.99,50.92-49.24,50.92s-49.24-16.16-49.24-50.92v-324.1v-5.66h-6.46h-72.81h-6.47v5.66l0.03,309.52
			C404.9,710.21,465.56,774.05,539.83,774.05"/>
	</g>
	<g>
		<path d="M541.35,119.79l0.26-3.83c2.95,0.05,5.01-0.49,6.18-1.62c1.17-1.12,1.88-2.75,2.14-4.87s0.48-4.54,0.67-7.25l3.41-50.17
			c0.11-1.55,0.25-3.04,0.42-4.46c0.17-1.43,0.34-2.72,0.5-3.88c-1.4-0.02-2.8-0.03-4.2-0.05s-2.8-0.03-4.2-0.05l0.35-5.11
			l26.13,1.78l-0.26,3.83c-2.87-0.12-4.91,0.41-6.12,1.57s-1.94,2.79-2.2,4.87s-0.48,4.52-0.67,7.3l-3.39,49.82
			c-0.14,2.09-0.28,3.87-0.42,5.34c-0.14,1.47-0.32,2.7-0.54,3.7l21.74,1.13c4.88,0.25,8.68-1.04,11.41-3.89
			c2.72-2.85,4.31-7.68,4.78-14.49l3.95,0.27l-2.33,23.99L541.35,119.79z"/>
		<path d="M630.01,132.32c-5.23-1.13-9.69-3.38-13.37-6.76s-6.24-7.58-7.7-12.62c-1.45-5.04-1.51-10.63-0.19-16.77
			c1.15-5.31,3.42-10.02,6.8-14.13c3.39-4.11,7.55-7.12,12.49-9.03s10.25-2.25,15.94-1.02c3.19,0.69,6.05,1.84,8.6,3.46
			s4.66,3.71,6.33,6.25c1.67,2.55,2.78,5.52,3.31,8.93c0.53,3.41,0.34,7.24-0.58,11.49l-40.2-7.97c-1.25,5.76-1.71,10.96-1.4,15.59
			c0.31,4.63,1.61,8.45,3.9,11.44c2.29,3,5.63,4.97,10.04,5.92c2.35,0.51,4.85,0.61,7.5,0.31c2.64-0.3,5.18-0.94,7.62-1.93
			c2.43-0.98,4.48-2.21,6.15-3.67l2.24,2.87c-2.74,2.74-5.75,4.75-9.04,6.03c-3.29,1.27-6.55,2-9.76,2.18
			C635.48,133.06,632.59,132.87,630.01,132.32z M622.83,89.44l29.01,6.27c0.59-2.73,0.76-5.45,0.51-8.17
			c-0.25-2.71-1.11-5.08-2.57-7.11c-1.47-2.02-3.68-3.35-6.64-3.99c-4.4-0.95-8.34-0.43-11.83,1.55
			C627.83,79.98,625,83.8,622.83,89.44z"/>
		<path d="M682.24,147.47c-3.66-1.31-6.73-2.96-9.23-4.96s-4.44-3.95-5.82-5.85l-0.93,3.99l-4.6-1.64l6.08-19.09l3.4,1.21
			c-0.92,3.05-1.04,6.04-0.36,8.96c0.69,2.92,2,5.47,3.94,7.65s4.3,3.76,7.08,4.75c1.9,0.68,3.87,1.03,5.92,1.06
			s3.92-0.37,5.62-1.21c1.7-0.83,2.9-2.24,3.61-4.21c0.73-2.04,0.73-3.96,0.01-5.74s-1.89-3.54-3.5-5.27s-3.39-3.43-5.34-5.12
			c-1.88-1.66-3.75-3.36-5.6-5.09c-1.85-1.73-3.48-3.59-4.87-5.57s-2.3-4.12-2.72-6.41c-0.42-2.29-0.13-4.82,0.86-7.6
			c0.55-1.53,1.44-3.11,2.68-4.73s2.84-3,4.82-4.15c1.97-1.15,4.36-1.82,7.15-2.02c2.79-0.2,6.05,0.37,9.78,1.7
			c1.97,0.71,4.05,1.82,6.22,3.34c2.18,1.52,4.07,3.6,5.68,6.23l1.27-4.24l4.6,1.64l-6.85,19.18l-3.51-1.25
			c0.77-2.61,1.06-5.28,0.89-8.03c-0.18-2.74-0.97-5.25-2.38-7.52c-1.41-2.28-3.69-3.98-6.83-5.1c-3.36-1.2-6.29-1.3-8.79-0.3
			s-4.14,2.6-4.93,4.79c-0.81,2.27-0.77,4.4,0.12,6.41s2.27,3.96,4.15,5.87c1.87,1.91,3.91,3.83,6.1,5.76
			c2.36,2.16,4.61,4.41,6.74,6.73c2.13,2.33,3.67,4.83,4.61,7.52c0.94,2.68,0.82,5.67-0.36,8.96c-1.31,3.66-3.32,6.35-6.04,8.1
			c-2.73,1.75-5.73,2.67-9.02,2.77C688.6,149.1,685.38,148.59,682.24,147.47z"/>
		<path d="M773.35,106.06c0.64-1.06,1.27-2.06,1.89-3.01c0.62-0.94,1.39-2.04,2.33-3.28c-1.23-0.66-2.45-1.3-3.65-1.94
			s-2.42-1.28-3.65-1.94l2.53-4.18c2.92,1.77,5.27,3.01,7.06,3.73s3.21,1.13,4.29,1.24c1.07,0.1,1.98,0.07,2.72-0.12l2.89,1.75
			l-17.98,29.66c2.98-0.73,6.06-0.84,9.24-0.32s6.29,1.7,9.35,3.55c4.25,2.57,7.46,5.93,9.63,10.05c2.17,4.13,3.11,8.69,2.8,13.68
			s-2.02,10.07-5.16,15.25c-3.42,5.64-7.61,9.79-12.58,12.45c-4.97,2.66-10.1,3.93-15.38,3.81s-10.18-1.54-14.69-4.28
			c-2.26-1.37-4.48-3.28-6.66-5.74s-3.62-5.53-4.29-9.2l-5.1,3.03l-3.48-2.11L773.35,106.06z M753.68,157.83
			c-2.13,3.52-3.21,6.56-3.22,9.14c-0.02,2.58,0.65,4.77,2,6.59c1.35,1.82,3.02,3.33,5.01,4.53c3.19,1.93,6.48,2.7,9.89,2.32
			c3.41-0.38,6.72-1.76,9.92-4.13c3.2-2.37,6.07-5.64,8.61-9.82c2.73-4.51,4.57-8.82,5.52-12.92c0.94-4.1,0.88-7.82-0.19-11.14
			c-1.07-3.32-3.33-6.03-6.78-8.12c-2.19-1.33-4.68-2.13-7.46-2.41s-5.46-0.02-8.03,0.78L753.68,157.83z"/>
		<path d="M788.63,197.88c1.91,1.46,3.6,2.01,5.07,1.62c1.47-0.39,2.92-1.38,4.34-2.98c1.42-1.6,2.99-3.5,4.69-5.72l16.17-21.04
			c0.76-0.98,1.51-1.9,2.26-2.74c0.75-0.84,1.65-1.83,2.72-2.97c-1.16-0.79-2.3-1.57-3.42-2.33c-1.12-0.77-2.26-1.54-3.42-2.33
			l2.98-3.88c2.71,2.08,4.89,3.57,6.56,4.45c1.67,0.89,3.02,1.44,4.08,1.67c1.05,0.22,1.96,0.28,2.72,0.18l2.68,2.06l-28.66,37.28
			c-0.95,1.23-1.8,2.31-2.56,3.24c-0.77,0.93-1.64,1.85-2.63,2.75c1.03,0.7,2.04,1.39,3.01,2.1c0.98,0.7,1.98,1.4,3.01,2.1
			l-2.91,3.78l-18.83-14.47L788.63,197.88z M838.56,151.25c-1.29-0.99-2.03-2.39-2.21-4.19s0.32-3.47,1.5-5.01s2.69-2.46,4.54-2.75
			c1.84-0.3,3.41,0.05,4.7,1.04c1.42,1.09,2.18,2.54,2.31,4.35c0.12,1.81-0.4,3.49-1.58,5.02c-1.18,1.54-2.68,2.44-4.5,2.71
			C841.5,152.68,839.92,152.29,838.56,151.25z"/>
		<path d="M863.03,168.03c0.86-0.89,1.69-1.74,2.5-2.52s1.8-1.68,2.99-2.69c-1.06-0.91-2.11-1.81-3.14-2.7s-2.08-1.78-3.14-2.7
			l3.39-3.53c2.46,2.37,4.48,4.09,6.07,5.19c1.58,1.09,2.89,1.81,3.91,2.15c1.02,0.34,1.92,0.5,2.69,0.48l2.43,2.34l-24.03,25.01
			c3.07-0.06,6.1,0.51,9.09,1.71c2.99,1.2,5.77,3.04,8.34,5.51c3.58,3.44,5.98,7.41,7.19,11.92c1.21,4.5,1.13,9.16-0.26,13.96
			s-4.18,9.39-8.37,13.75c-4.57,4.76-9.57,7.89-15,9.4s-10.71,1.63-15.84,0.36s-9.6-3.73-13.4-7.39c-1.9-1.83-3.65-4.18-5.25-7.06
			c-1.59-2.88-2.32-6.18-2.17-9.92l-5.64,1.84l-2.94-2.82L863.03,168.03z M832.51,214.25c-2.85,2.97-4.57,5.7-5.15,8.21
			c-0.58,2.51-0.41,4.8,0.51,6.86s2.22,3.91,3.9,5.52c2.69,2.58,5.73,4.06,9.14,4.43c3.41,0.37,6.94-0.25,10.58-1.86
			s7.16-4.18,10.55-7.7c3.66-3.8,6.39-7.6,8.21-11.4c1.82-3.8,2.57-7.43,2.25-10.91c-0.32-3.48-1.93-6.62-4.84-9.41
			c-1.85-1.77-4.1-3.1-6.75-3.98c-2.65-0.88-5.32-1.21-8-0.99L832.51,214.25z"/>
		<path d="M857.14,260.13c1.54,1.84,3.07,2.74,4.59,2.68s3.15-0.71,4.88-1.96c1.74-1.25,3.68-2.77,5.82-4.56l42.24-35.32
			c0.95-0.79,1.87-1.54,2.76-2.23s1.97-1.48,3.27-2.35c-0.96-1.02-1.9-2.03-2.83-3.02s-1.87-2-2.83-3.02l3.75-3.14
			c2.19,2.62,4.01,4.56,5.47,5.82c1.46,1.26,2.67,2.11,3.66,2.56c0.98,0.45,1.85,0.7,2.62,0.77l2.17,2.59l-57.88,48.55
			c-1.19,1-2.27,1.85-3.24,2.56s-2.04,1.4-3.2,2.07c0.85,0.9,1.68,1.8,2.49,2.7c0.8,0.9,1.63,1.8,2.49,2.7l-3.66,3.06l-15.23-18.22
			L857.14,260.13z"/>
		<path d="M876.3,283.43c1.41,1.95,2.88,2.95,4.4,2.99c1.52,0.05,3.19-0.49,5.01-1.62s3.86-2.51,6.12-4.15l21.49-15.57
			c1-0.73,1.99-1.39,2.94-1.99c0.96-0.6,2.11-1.29,3.46-2.07c-0.88-1.08-1.75-2.16-2.61-3.21s-1.73-2.12-2.61-3.21l3.96-2.87
			c2,2.76,3.68,4.81,5.02,6.14s2.49,2.24,3.43,2.76c0.95,0.51,1.8,0.83,2.56,0.95l1.98,2.73l-38.08,27.59
			c-1.26,0.91-2.38,1.7-3.38,2.38c-1,0.67-2.1,1.3-3.3,1.89c0.79,0.96,1.55,1.92,2.29,2.87c0.74,0.95,1.5,1.91,2.29,2.87l-3.86,2.8
			l-13.93-19.23L876.3,283.43z M937.43,252.93c-0.96-1.32-1.27-2.87-0.92-4.65c0.34-1.78,1.29-3.24,2.87-4.38
			c1.57-1.14,3.28-1.59,5.13-1.35c1.85,0.24,3.25,1.02,4.21,2.34c1.05,1.45,1.37,3.05,0.98,4.82s-1.38,3.23-2.95,4.36
			c-1.57,1.14-3.27,1.58-5.09,1.31C939.84,255.14,938.43,254.32,937.43,252.93z"/>
		<path d="M903.66,334.7c-2.68-4.72-4.01-9.63-4-14.72s1.31-9.87,3.92-14.33c2.6-4.46,6.39-8.11,11.39-10.94
			c5.33-3.02,10.76-4.63,16.27-4.81c5.52-0.18,10.6,0.95,15.24,3.4c4.65,2.45,8.33,6.07,11.05,10.86c2.68,4.72,3.98,9.65,3.9,14.78
			c-0.08,5.13-1.39,9.93-3.94,14.41s-6.28,8.11-11.21,10.91c-5.2,2.95-10.58,4.51-16.15,4.68c-5.57,0.17-10.69-0.96-15.37-3.39
			S906.38,339.49,903.66,334.7z M908.17,333.21c2.03,3.58,4.65,5.84,7.86,6.78c3.21,0.94,6.7,0.95,10.45,0.03s7.42-2.4,11-4.43
			c3.04-1.72,5.86-3.71,8.47-5.94c2.61-2.24,4.77-4.65,6.48-7.22c1.71-2.57,2.72-5.23,3.05-7.95s-0.28-5.44-1.81-8.14
			c-1.99-3.51-4.63-5.8-7.92-6.88c-3.29-1.08-6.85-1.22-10.68-0.43s-7.61,2.24-11.32,4.35c-4.19,2.38-7.83,5.2-10.92,8.47
			c-3.1,3.27-5.16,6.76-6.18,10.46C905.64,325.99,906.14,329.63,908.17,333.21z"/>
		<path d="M928.29,385.91c-0.68-1.65-1.14-3.43-1.38-5.35s0.01-3.89,0.77-5.92s2.27-4.02,4.54-5.96c2.26-1.94,5.55-3.79,9.86-5.57
			l31.31-12.63l-3.52-8.25l4.63-1.9c0.84,1.84,2.32,3.45,4.45,4.84c2.12,1.39,4.65,2.38,7.58,2.98s5.88,0.62,8.84,0.08l1.51,3.66
			l-15.07,6.2l7.44,18.08l-4.2,1.73l-7.66-18L947.38,372c-3.23,1.33-5.86,2.73-7.9,4.2c-2.04,1.47-3.38,3.05-4.03,4.74
			s-0.57,3.51,0.23,5.44c0.83,2.01,2.17,3.66,4.05,4.94c1.87,1.29,4.09,2.2,6.66,2.73l-1.17,3.88c-3.02-0.61-5.53-1.4-7.52-2.38
			c-2-0.98-3.63-2.05-4.91-3.2c-1.27-1.16-2.25-2.31-2.93-3.45C929.17,387.77,928.65,386.77,928.29,385.91z"/>
		<path d="M950.76,438.01c0.62,2.32,1.64,3.78,3.04,4.37c1.4,0.59,3.15,0.68,5.26,0.28c2.1-0.4,4.5-0.97,7.2-1.69l15.74-4.23
			c6.44-1.73,11-4.06,13.67-6.99s3.37-6.59,2.11-10.99c-0.82-2.75-2.23-5.29-4.21-7.61c-1.99-2.32-4.22-4.03-6.68-5.14l-33.16,8.91
			c-1.5,0.4-2.84,0.72-4.02,0.96s-2.44,0.42-3.77,0.53c0.4,1.18,0.77,2.34,1.12,3.5c0.35,1.15,0.72,2.32,1.12,3.5l-4.61,1.24
			l-6.16-22.93l3.37-0.91c0.62,2.32,1.64,3.78,3.04,4.37c1.4,0.59,3.16,0.7,5.27,0.33c2.11-0.37,4.52-0.91,7.21-1.64l53.17-14.28
			c1.2-0.32,2.35-0.61,3.44-0.87c1.1-0.25,2.41-0.51,3.95-0.76c-0.44-1.33-0.87-2.64-1.3-3.93c-0.43-1.29-0.86-2.6-1.3-3.93
			l4.72-1.27c0.89,3.3,1.72,5.82,2.52,7.58c0.79,1.75,1.54,3.04,2.24,3.86c0.7,0.82,1.38,1.42,2.05,1.8l0.88,3.26l-34.29,9.21
			c1.87,1.27,3.62,2.78,5.26,4.55s3.09,3.67,4.36,5.7c1.27,2.03,2.18,4.09,2.75,6.19c1.75,6.52,0.97,11.77-2.34,15.75
			s-9.26,7.17-17.86,9.56l-20.88,5.73c-1.5,0.4-2.83,0.74-4.01,1.02c-1.17,0.27-2.43,0.47-3.76,0.59c0.4,1.18,0.77,2.34,1.12,3.5
			c0.35,1.15,0.72,2.32,1.12,3.5l-4.61,1.24l-6.16-22.93L950.76,438.01z"/>
		<path d="M955.34,494.3c-0.61-5.32,0.09-10.26,2.1-14.83c2.01-4.57,5.17-8.35,9.48-11.34c4.3-3,9.58-4.85,15.82-5.57
			c5.39-0.62,10.58,0.01,15.57,1.9c4.98,1.89,9.17,4.86,12.57,8.93c3.4,4.06,5.43,8.98,6.09,14.77c0.37,3.24,0.2,6.32-0.52,9.26
			c-0.72,2.93-2.01,5.6-3.88,8s-4.34,4.4-7.39,6c-3.06,1.6-6.75,2.65-11.06,3.15l-5.37-40.63c-5.86,0.67-10.93,1.9-15.22,3.68
			s-7.48,4.24-9.58,7.37c-2.1,3.13-2.89,6.93-2.38,11.4c0.27,2.39,0.98,4.79,2.12,7.2c1.13,2.41,2.56,4.61,4.27,6.6
			c1.71,1.99,3.53,3.54,5.46,4.65l-1.99,3.04c-3.48-1.71-6.35-3.92-8.61-6.63c-2.26-2.71-4-5.56-5.2-8.54
			C956.39,499.72,955.64,496.92,955.34,494.3z M993.63,473.73l3.39,29.49c2.78-0.32,5.41-1.03,7.9-2.14
			c2.49-1.11,4.46-2.68,5.9-4.72s1.99-4.56,1.65-7.57c-0.51-4.47-2.27-8.04-5.27-10.7C1004.2,475.42,999.68,473.97,993.63,473.73z
			 M1024.89,491.81l10.77-14.36c1.22-1.62,2.4-2.6,3.53-2.92c1.13-0.33,2.11-0.32,2.93,0.01c0.82,0.33,1.36,0.64,1.63,0.93
			c0.18,0.21,0.49,0.69,0.92,1.42c0.44,0.73,0.58,1.65,0.44,2.76c-0.15,1.11-1.04,2.31-2.69,3.59l-14.5,11.51L1024.89,491.81z"/>
		<path d="M929.69,560.15l3.49,0.1c-0.07,2.4,0.49,4.09,1.66,5.05c1.18,0.96,2.83,1.55,4.96,1.77c2.13,0.21,4.59,0.36,7.38,0.44
			l17.45,0.49c-2.27-2.08-4-4.62-5.2-7.6s-1.74-6.34-1.64-10.06c0.14-4.81,1.48-9.16,4.04-13.04s6.09-6.93,10.62-9.13
			c4.53-2.2,9.77-3.22,15.75-3.05c6.52,0.18,12.14,1.68,16.87,4.5c4.73,2.81,8.37,6.53,10.92,11.14s3.74,9.67,3.59,15.18
			c-0.09,3.26-0.6,6.21-1.53,8.87c-0.93,2.65-1.42,4.95-1.48,6.89c-0.02,0.85,0.09,1.65,0.34,2.4c0.25,0.74,0.72,1.44,1.4,2.08
			l-0.09,3.26l-76.68-2.05c-1.55-0.04-2.93-0.1-4.13-0.17s-2.46-0.24-3.77-0.51c0.04,1.24,0.07,2.47,0.07,3.67
			c0.01,1.2,0.03,2.43,0.07,3.67l-4.77-0.14L929.69,560.15z M963.38,554.69c-0.07,2.56,0.56,5.04,1.88,7.45
			c1.33,2.41,3.06,4.41,5.19,6.03l30.48,0.86c3.1,0.09,5.69-0.27,7.77-1.06c2.08-0.8,3.67-2.15,4.77-4.06
			c1.1-1.91,1.7-4.53,1.79-7.87c0.11-3.72-0.85-6.97-2.87-9.75s-4.89-4.95-8.61-6.53s-8.1-2.44-13.14-2.58
			c-4.96-0.14-9.49,0.45-13.56,1.77s-7.35,3.32-9.83,6.01C964.78,547.65,963.49,550.89,963.38,554.69z"/>
		<path d="M952.07,611.02c0.75-4.12,2.14-7.44,4.17-9.95c2.03-2.51,5.01-4.14,8.93-4.89s9.01-0.55,15.27,0.58l20.39,3.7
			c1.22,0.22,2.44,0.46,3.65,0.72c1.21,0.26,2.45,0.62,3.71,1.09c0.16-1.31,0.34-2.64,0.54-3.98c0.2-1.34,0.38-2.67,0.54-3.98
			l4.7,0.85l-0.64,3.55c-0.59,3.28-0.7,5.73-0.32,7.33c0.38,1.61,0.87,2.9,1.48,3.88l-0.6,3.32l-34.93-6.34
			c-6.57-1.19-11.64-1.15-15.23,0.14c-3.58,1.28-5.75,4.18-6.49,8.7c-0.45,2.92-0.05,5.85,1.19,8.79c1.24,2.95,2.9,5.43,4.97,7.47
			l29.43,5.34c1.83,0.33,3.41,0.66,4.73,0.98s2.61,0.71,3.87,1.17c0.17-1.39,0.36-2.77,0.58-4.15c0.21-1.38,0.4-2.77,0.58-4.15
			l4.7,0.85l-0.64,3.55c-0.6,3.28-0.71,5.73-0.33,7.33c0.38,1.61,0.87,2.9,1.49,3.88l-0.6,3.32l-43.27-7.97
			c-1.22-0.22-2.93-0.57-5.13-1.05s-4.05-0.93-5.55-1.36c-0.17,1.39-0.35,2.78-0.52,4.17c-0.17,1.39-0.35,2.78-0.52,4.17l-4.81-0.87
			l2.97-16.38c1.34,0.01,2.59,0.06,3.76,0.15s2.25,0.19,3.26,0.3c-1.94-2.8-3.46-6.03-4.57-9.7
			C951.71,617.9,951.46,614.38,952.07,611.02z"/>
		<path d="M935.18,677.2c1.72-5.07,4.47-9.24,8.25-12.5c3.77-3.27,8.25-5.33,13.42-6.2s10.73-0.29,16.68,1.74
			c5.14,1.75,9.56,4.54,13.26,8.38c3.69,3.84,6.21,8.32,7.54,13.44c1.33,5.12,1.06,10.44-0.81,15.95c-1.05,3.09-2.52,5.8-4.43,8.15
			c-1.9,2.34-4.21,4.2-6.93,5.57s-5.8,2.12-9.25,2.26s-7.23-0.49-11.34-1.89l12.53-39.02c-5.58-1.9-10.7-2.96-15.33-3.18
			c-4.64-0.22-8.57,0.63-11.81,2.56s-5.58,5.03-7.03,9.29c-0.77,2.28-1.16,4.75-1.17,7.41c0,2.66,0.34,5.26,1.04,7.79
			c0.7,2.53,1.68,4.71,2.94,6.53l-3.1,1.9c-2.41-3.03-4.06-6.26-4.95-9.67c-0.89-3.42-1.24-6.73-1.04-9.95
			C933.81,682.55,934.33,679.7,935.18,677.2z M978.59,674.99l-9.55,28.1c2.64,0.9,5.33,1.38,8.05,1.45
			c2.72,0.06,5.17-0.52,7.35-1.74c2.18-1.23,3.76-3.27,4.73-6.14c1.45-4.26,1.39-8.24-0.19-11.93
			C987.41,681.04,983.94,677.79,978.59,674.99z"/>
		<path d="M914.12,727.36c1.72-3.48,3.71-6.35,5.99-8.6c2.28-2.25,4.44-3.96,6.48-5.11l-3.86-1.38l2.16-4.39l18.27,8.22l-1.6,3.24
			c-2.92-1.27-5.88-1.73-8.86-1.38s-5.67,1.36-8.05,3.04s-4.23,3.84-5.53,6.49c-0.89,1.81-1.47,3.73-1.74,5.76s-0.08,3.94,0.55,5.72
			c0.63,1.78,1.89,3.14,3.77,4.07c1.95,0.96,3.85,1.18,5.7,0.67c1.85-0.51,3.73-1.47,5.63-2.87s3.8-2.97,5.7-4.72
			c1.86-1.68,3.76-3.34,5.7-4.98c1.93-1.64,3.96-3.04,6.09-4.2c2.13-1.16,4.35-1.81,6.68-1.96c2.32-0.15,4.81,0.42,7.45,1.73
			c1.46,0.72,2.92,1.79,4.39,3.2c1.46,1.41,2.66,3.17,3.57,5.26c0.92,2.09,1.31,4.54,1.19,7.33c-0.12,2.79-1.06,5.97-2.81,9.52
			c-0.93,1.88-2.27,3.81-4.03,5.8s-4.04,3.63-6.84,4.93l4.07,1.75l-2.16,4.38l-18.27-9l1.65-3.34c2.5,1.06,5.13,1.66,7.87,1.8
			s5.32-0.36,7.75-1.5c2.42-1.14,4.37-3.21,5.85-6.2c1.58-3.2,2.01-6.1,1.3-8.7c-0.71-2.6-2.11-4.41-4.2-5.44
			c-2.16-1.06-4.29-1.27-6.38-0.61c-2.1,0.65-4.2,1.8-6.3,3.45c-2.11,1.64-4.25,3.44-6.42,5.4c-2.42,2.1-4.91,4.07-7.46,5.93
			c-2.56,1.85-5.22,3.09-8,3.72c-2.77,0.62-5.73,0.16-8.86-1.38c-3.48-1.72-5.93-4.03-7.35-6.93c-1.42-2.91-2-6-1.72-9.28
			C911.77,733.49,912.65,730.36,914.12,727.36z"/>
		<path d="M935.34,843.2c1.61-1.99,2.35-3.76,2.22-5.32c-0.14-1.56-0.69-2.88-1.66-3.96c-0.97-1.09-1.88-1.97-2.72-2.65
			l-22.79-18.47c-3.38-2.74-6.83-5.16-10.36-7.28s-7.08-3.56-10.63-4.35c-3.56-0.79-7.11-0.54-10.64,0.74
			c-3.54,1.28-6.94,3.94-10.21,7.98c-3.52,4.34-5.36,8.71-5.54,13.12c-0.17,4.4,1.02,8.72,3.59,12.95
			c2.57,4.23,6.18,8.28,10.83,12.15l25.19,20.87c1.21,0.98,2.34,1.95,3.41,2.91c1.07,0.96,2.03,1.84,2.88,2.64
			c0.82-1.13,1.63-2.25,2.42-3.36s1.6-2.22,2.42-3.36l3.98,3.23l-13.63,16.82l-2.98-2.42c1.8-2.34,2.55-4.32,2.27-5.95
			c-0.28-1.63-1.2-3.14-2.75-4.55s-3.39-3.03-5.51-4.84l-20.83-17.19c-3.92-3.18-7.31-6.63-10.19-10.36
			c-2.87-3.73-4.93-7.66-6.16-11.81s-1.39-8.42-0.47-12.82c0.92-4.4,3.21-8.86,6.88-13.38c3.91-4.82,7.83-8.36,11.76-10.62
			s8.01-3.3,12.25-3.1c4.24,0.19,8.72,1.5,13.45,3.93c4.72,2.43,9.89,5.92,15.49,10.46l18.36,14.88c1.57,1.27,3.38,2.82,5.45,4.64
			s3.65,3.23,4.74,4.22c0.82-1.13,1.65-2.26,2.5-3.37s1.68-2.23,2.5-3.37l3.89,3.15l-16.42,20.25L935.34,843.2z"/>
		<path d="M817.45,853.58c3.57-3.11,7.57-5.01,11.99-5.72s8.92-0.12,13.49,1.77s8.82,5.09,12.74,9.6c4.17,4.8,6.9,9.89,8.17,15.26
			c1.27,5.37,1.11,10.6-0.48,15.68c-1.59,5.09-4.56,9.51-8.89,13.28c-1.93,1.68-4.07,3.1-6.4,4.25c-2.34,1.16-4.34,1.9-6.01,2.22
			l10.46,12.04c0.81,0.94,1.58,1.84,2.29,2.72c0.71,0.87,1.51,1.95,2.42,3.22c1-0.97,1.99-1.94,2.97-2.89
			c0.97-0.95,1.96-1.91,2.97-2.89l3.21,3.69c-2.58,2.24-4.47,4.09-5.67,5.54c-1.2,1.46-2.01,2.68-2.44,3.67s-0.67,1.86-0.72,2.63
			l-2.55,2.21l-49.56-57.02c-0.81-0.94-1.6-1.9-2.36-2.89s-1.58-2.12-2.49-3.39c-1,0.97-1.99,1.94-2.97,2.89
			c-0.97,0.95-1.96,1.91-2.97,2.89l-3.21-3.69L804,867.74c0.94,0.73,1.77,1.42,2.5,2.07c0.72,0.66,1.42,1.31,2.09,1.96
			c0.06-3.24,0.82-6.45,2.28-9.62C812.33,858.98,814.53,856.13,817.45,853.58z M818.03,860.63c-1.93,1.68-3.4,3.93-4.39,6.75
			c-1,2.82-1.42,5.61-1.29,8.37c0.67,0.65,1.35,1.37,2.04,2.16s1.44,1.65,2.25,2.59l21.9,25.38c2.32-0.17,4.53-0.73,6.64-1.68
			c2.1-0.95,4.03-2.19,5.79-3.72c2.93-2.55,4.74-5.61,5.43-9.19s0.27-7.38-1.26-11.39s-4.14-8.02-7.82-12.02
			c-3.22-3.47-6.57-6.17-10.04-8.09c-3.47-1.92-6.85-2.86-10.16-2.82C823.81,857.02,820.79,858.24,818.03,860.63z"/>
		<path d="M763.04,894.55c4.51-2.88,9.26-4.42,14.25-4.62c4.99-0.19,9.77,0.99,14.35,3.54c4.58,2.55,8.56,6.48,11.94,11.78
			c2.92,4.58,4.63,9.52,5.12,14.82s-0.35,10.38-2.51,15.21c-2.16,4.83-5.69,8.82-10.6,11.95c-2.75,1.75-5.59,2.95-8.55,3.6
			c-2.95,0.64-5.92,0.65-8.9,0.02c-2.98-0.63-5.86-1.97-8.64-4.01c-2.78-2.05-5.34-4.9-7.68-8.56l34.15-22.65
			c-3.18-4.97-6.5-8.99-9.99-12.06c-3.48-3.07-7.09-4.86-10.83-5.38c-3.73-0.51-7.5,0.44-11.29,2.86c-2.03,1.29-3.87,2.98-5.54,5.06
			s-3.02,4.32-4.05,6.73c-1.04,2.41-1.63,4.72-1.78,6.94l-3.61-0.46c0.01-3.88,0.74-7.42,2.18-10.65c1.44-3.22,3.24-6.03,5.39-8.42
			C758.63,897.88,760.82,895.97,763.04,894.55z M798.33,919.94l-25.01,15.98c1.5,2.35,3.3,4.41,5.39,6.16s4.36,2.83,6.83,3.23
			c2.47,0.4,4.98-0.21,7.53-1.84c3.79-2.42,6.23-5.57,7.3-9.43C801.44,930.17,800.76,925.47,798.33,919.94z"/>
		<path d="M697.22,929.22c6.04,5.95,12.11,11.87,18.21,17.75c6.1,5.88,12.16,11.89,18.18,18.01c1.93,1.91,3.84,3.84,5.75,5.79
			c1.91,1.96,3.78,3.95,5.63,5.97c1.85,2.02,3.71,4.04,5.6,6.04c-0.32-0.79-0.61-1.59-0.89-2.4s-0.58-1.61-0.89-2.4
			c-0.96-2.62-2.11-5.78-3.45-9.46c-1.34-3.69-2.76-7.63-4.27-11.83c-1.5-4.21-3.04-8.39-4.62-12.57s-3.06-8.12-4.45-11.82
			c-0.56-1.62-1.13-3.22-1.73-4.82c-0.59-1.6-1.09-3.12-1.49-4.54c-1.34,0.62-2.66,1.23-3.97,1.83c-1.31,0.6-2.63,1.21-3.97,1.83
			l-1.89-4.76l20.66-8.21l1.42,3.57c-2.21,0.96-3.65,2.1-4.34,3.42s-0.87,2.79-0.56,4.42s0.78,3.32,1.39,5.08l17.55,50.14
			c0.5,1.47,1.02,2.93,1.56,4.39s1.04,2.88,1.51,4.28c1.27-0.59,2.54-1.16,3.83-1.71c1.28-0.55,2.56-1.12,3.83-1.71l1.85,4.65
			l-16.55,6.58l-35.68-35.55c-1.8-1.79-3.58-3.59-5.34-5.39s-3.56-3.6-5.39-5.37c-1.83-1.78-3.66-3.6-5.49-5.46l-0.22,0.09
			c-0.02,2.26-0.03,4.96-0.04,8.09c-0.01,3.13,0.02,5.82,0.07,8.05c-0.02,9.19-0.16,18.45-0.42,27.79
			c-0.26,9.33-0.35,18.91-0.29,28.74l-16.01,6.36l-1.42-3.57c1.83-0.65,3.17-1.58,4.03-2.79c0.85-1.22,1.19-2.79,1-4.72
			c-0.18-1.93-0.93-4.35-2.25-7.25l-22.38-48.1c-0.63-1.17-1.18-2.33-1.63-3.48c-0.46-1.15-0.88-2.2-1.25-3.14
			c-1.27,0.59-2.56,1.16-3.88,1.73s-2.61,1.14-3.88,1.73l-1.89-4.76l24.23-9.63l1.42,3.57c-2.21,0.96-3.65,2.16-4.33,3.6
			s-0.77,3.15-0.28,5.12s1.36,4.3,2.59,6.99l16.35,34.83c0.53,1.12,1.06,2.25,1.59,3.38c0.53,1.12,1.06,2.25,1.59,3.38
			c0.53,1.12,1.06,2.25,1.59,3.38c0.02-0.59,0.04-1.23,0.06-1.9c0.02-0.68,0.01-1.38-0.03-2.12l0.43-69.82L697.22,929.22z"/>
		<path d="M618.52,987.83l1.04,8.08l-40.98,5.28l-0.98-7.62L618.52,987.83z"/>
		<path d="M535.45,961.89l-0.28,3.83c-2.95-0.06-5.01,0.47-6.19,1.59c-1.17,1.12-1.89,2.74-2.17,4.86
			c-0.27,2.12-0.51,4.53-0.71,7.24l-3.69,50.15c-0.11,1.55-0.26,3.03-0.45,4.46c-0.18,1.43-0.36,2.72-0.52,3.87
			c1.4,0.02,2.8,0.05,4.2,0.08c1.4,0.02,2.8,0.05,4.2,0.08l-0.38,5.11l-26.12-1.92l0.28-3.83c2.87,0.13,4.91-0.38,6.12-1.53
			c1.21-1.16,1.96-2.77,2.22-4.86s0.51-4.51,0.71-7.3l3.67-49.8c0.15-2.09,0.31-3.87,0.45-5.34c0.15-1.47,0.34-2.7,0.56-3.69
			l-21.73-1.25c-4.88-0.28-8.69,0.99-11.43,3.83c-2.74,2.83-4.36,7.65-4.86,14.46l-3.95-0.29l2.47-23.98L535.45,961.89z"/>
		<path d="M446.88,948.87c5.23,1.16,9.67,3.44,13.33,6.83c3.66,3.39,6.2,7.61,7.62,12.66c1.43,5.04,1.46,10.64,0.09,16.77
			c-1.18,5.3-3.47,10-6.88,14.09s-7.59,7.08-12.54,8.96s-10.26,2.19-15.95,0.93c-3.18-0.71-6.04-1.88-8.58-3.51
			c-2.54-1.64-4.64-3.73-6.3-6.28c-1.66-2.55-2.75-5.54-3.26-8.95c-0.51-3.41-0.3-7.24,0.64-11.48l40.15,8.19
			c1.28-5.76,1.77-10.95,1.49-15.59c-0.28-4.63-1.56-8.45-3.84-11.46c-2.27-3.01-5.61-5-10-5.97c-2.35-0.52-4.85-0.64-7.49-0.35
			c-2.65,0.29-5.19,0.92-7.63,1.88c-2.44,0.97-4.5,2.18-6.17,3.64l-2.22-2.88c2.75-2.73,5.78-4.72,9.08-5.98s6.56-1.96,9.77-2.12
			C441.4,948.09,444.3,948.3,446.88,948.87z M453.81,991.78l-28.98-6.43c-0.61,2.73-0.79,5.45-0.56,8.16
			c0.23,2.71,1.08,5.09,2.53,7.12c1.46,2.03,3.66,3.38,6.62,4.03c4.39,0.98,8.34,0.48,11.84-1.49
			C448.76,1001.21,451.61,997.41,453.81,991.78z"/>
		<path d="M394.71,933.41c3.65,1.33,6.71,3,9.2,5.02s4.42,3.98,5.79,5.88l0.95-3.99l4.59,1.67l-6.18,19.05l-3.39-1.23
			c0.94-3.04,1.08-6.03,0.41-8.96c-0.67-2.93-1.97-5.49-3.9-7.67s-4.28-3.79-7.05-4.79c-1.9-0.69-3.87-1.06-5.92-1.1
			c-2.05-0.04-3.92,0.35-5.63,1.17c-1.7,0.82-2.91,2.22-3.63,4.19c-0.74,2.04-0.76,3.96-0.04,5.74c0.71,1.79,1.87,3.55,3.47,5.29
			s3.37,3.45,5.31,5.15c1.87,1.67,3.73,3.38,5.57,5.12s3.46,3.61,4.84,5.6s2.28,4.13,2.68,6.42c0.41,2.29,0.1,4.83-0.9,7.6
			c-0.56,1.53-1.46,3.1-2.71,4.71c-1.25,1.61-2.86,2.99-4.84,4.12c-1.98,1.14-4.37,1.8-7.16,1.98s-6.05-0.4-9.77-1.75
			c-1.97-0.72-4.04-1.84-6.21-3.37s-4.05-3.62-5.65-6.27l-1.29,4.24l-4.59-1.67l6.96-19.14l3.5,1.27c-0.78,2.61-1.09,5.28-0.93,8.02
			s0.94,5.25,2.34,7.54c1.4,2.28,3.67,4,6.8,5.14c3.35,1.22,6.29,1.34,8.79,0.35c2.51-0.99,4.16-2.58,4.95-4.76
			c0.82-2.26,0.79-4.4-0.08-6.41c-0.88-2.01-2.25-3.98-4.11-5.89c-1.86-1.92-3.88-3.85-6.07-5.8c-2.35-2.17-4.58-4.43-6.7-6.77
			c-2.12-2.34-3.64-4.85-4.57-7.54c-0.92-2.69-0.79-5.67,0.41-8.96c1.33-3.65,3.36-6.33,6.09-8.07c2.74-1.73,5.75-2.64,9.04-2.72
			C388.36,931.74,391.57,932.27,394.71,933.41z"/>
		<path d="M303.38,974.32c-0.65,1.06-1.28,2.06-1.91,3c-0.62,0.94-1.4,2.03-2.35,3.27c1.23,0.66,2.45,1.32,3.64,1.96
			c1.2,0.64,2.41,1.3,3.64,1.96l-2.56,4.17c-2.91-1.79-5.25-3.04-7.04-3.77c-1.78-0.73-3.21-1.15-4.28-1.26s-1.98-0.08-2.73,0.1
			l-2.88-1.77l18.14-29.56c-2.99,0.71-6.07,0.8-9.25,0.27c-3.17-0.54-6.28-1.74-9.33-3.61c-4.23-2.6-7.42-5.97-9.57-10.11
			s-3.06-8.71-2.73-13.69c0.33-4.99,2.08-10.06,5.24-15.22c3.45-5.62,7.67-9.75,12.65-12.38c4.98-2.63,10.12-3.88,15.4-3.73
			s10.17,1.6,14.67,4.36c2.25,1.38,4.46,3.31,6.63,5.78c2.17,2.47,3.58,5.55,4.24,9.23l5.12-3l3.47,2.13L303.38,974.32z
			 M323.34,922.66c2.15-3.51,3.24-6.54,3.28-9.12c0.03-2.57-0.62-4.77-1.96-6.6c-1.34-1.82-3-3.34-4.99-4.56
			c-3.17-1.95-6.47-2.74-9.88-2.37s-6.72,1.72-9.94,4.07c-3.22,2.35-6.11,5.61-8.66,9.78c-2.76,4.5-4.62,8.79-5.59,12.89
			c-0.96,4.1-0.92,7.81,0.13,11.14c1.05,3.33,3.3,6.05,6.74,8.16c2.18,1.34,4.66,2.16,7.44,2.45c2.78,0.29,5.46,0.05,8.03-0.74
			L323.34,922.66z"/>
		<path d="M238.39,928.75c1.29,1,2.02,2.4,2.19,4.21c0.17,1.8-0.34,3.47-1.53,5s-2.71,2.44-4.55,2.73s-3.41-0.07-4.7-1.07
			c-1.41-1.1-2.17-2.55-2.29-4.36s0.42-3.48,1.61-5.01s2.7-2.43,4.52-2.68C235.46,927.3,237.05,927.7,238.39,928.75z M288.59,882.4
			c-1.9-1.48-3.58-2.03-5.06-1.65c-1.47,0.38-2.92,1.36-4.36,2.95c-1.43,1.59-3.01,3.49-4.72,5.69l-16.29,20.95
			c-0.76,0.98-1.52,1.89-2.27,2.73c-0.75,0.84-1.66,1.83-2.74,2.96c1.15,0.79,2.29,1.58,3.41,2.35c1.12,0.77,2.26,1.56,3.41,2.35
			l-3,3.86c-2.7-2.1-4.87-3.59-6.53-4.49c-1.66-0.9-3.02-1.46-4.07-1.69s-1.96-0.29-2.72-0.2l-2.66-2.07l28.87-37.12
			c0.95-1.23,1.81-2.3,2.58-3.23s1.65-1.84,2.64-2.74c-1.03-0.7-2.03-1.41-3-2.11c-0.97-0.71-1.97-1.41-3-2.11l2.93-3.77
			l18.75,14.58L288.59,882.4z"/>
		<path d="M214.02,911.83c-0.86,0.89-1.7,1.73-2.52,2.51c-0.81,0.78-1.81,1.67-3.01,2.68c1.06,0.92,2.1,1.82,3.13,2.71
			s2.07,1.79,3.13,2.71l-3.41,3.51c-2.45-2.38-4.46-4.12-6.04-5.22c-1.58-1.1-2.88-1.82-3.9-2.17c-1.02-0.34-1.91-0.51-2.68-0.5
			l-2.42-2.35l24.17-24.88c-3.07,0.04-6.1-0.54-9.08-1.76c-2.98-1.22-5.75-3.07-8.31-5.56c-3.56-3.46-5.94-7.45-7.13-11.96
			s-1.08-9.16,0.33-13.96c1.41-4.79,4.23-9.36,8.45-13.7c4.6-4.73,9.62-7.83,15.05-9.31c5.44-1.48,10.72-1.57,15.84-0.27
			s9.58,3.79,13.36,7.46c1.89,1.84,3.63,4.2,5.21,7.09s2.28,6.2,2.12,9.93l5.65-1.81l2.92,2.84L214.02,911.83z M244.8,865.79
			c2.87-2.95,4.6-5.68,5.19-8.18c0.6-2.5,0.44-4.79-0.47-6.87c-0.91-2.07-2.2-3.92-3.87-5.54c-2.67-2.6-5.71-4.09-9.12-4.48
			c-3.41-0.39-6.94,0.21-10.59,1.8c-3.65,1.59-7.18,4.14-10.59,7.64c-3.68,3.78-6.43,7.57-8.27,11.35
			c-1.84,3.79-2.61,7.42-2.31,10.9c0.3,3.48,1.89,6.63,4.79,9.44c1.84,1.79,4.08,3.12,6.73,4.02c2.65,0.89,5.31,1.24,8,1.04
			L244.8,865.79z"/>
		<path d="M220.45,819.79c-1.53-1.85-3.06-2.76-4.58-2.71s-3.15,0.69-4.9,1.93c-1.74,1.24-3.69,2.75-5.84,4.53l-42.43,35.08
			c-0.96,0.79-1.88,1.53-2.77,2.22c-0.89,0.69-1.98,1.46-3.28,2.33c0.95,1.03,1.89,2.04,2.81,3.04c0.93,1,1.86,2.01,2.81,3.04
			l-3.77,3.12c-2.18-2.63-3.99-4.58-5.44-5.85c-1.45-1.27-2.66-2.13-3.64-2.58s-1.85-0.71-2.61-0.79l-2.15-2.6l58.15-48.23
			c1.2-0.99,2.28-1.84,3.26-2.54c0.98-0.71,2.05-1.39,3.21-2.05c-0.85-0.91-1.67-1.81-2.47-2.71s-1.62-1.81-2.47-2.71l3.68-3.04
			l15.13,18.3L220.45,819.79z"/>
		<path d="M140.11,826.53c0.95,1.33,1.25,2.88,0.9,4.65c-0.35,1.78-1.31,3.23-2.89,4.36s-3.29,1.57-5.14,1.32s-3.25-1.04-4.2-2.36
			c-1.04-1.45-1.36-3.06-0.95-4.83s1.4-3.22,2.97-4.35c1.58-1.13,3.28-1.56,5.09-1.29C137.71,824.31,139.11,825.14,140.11,826.53z
			 M201.41,796.38c-1.4-1.96-2.86-2.96-4.38-3.02s-3.19,0.47-5.02,1.59c-1.83,1.12-3.87,2.49-6.15,4.11l-21.58,15.45
			c-1.01,0.72-1.99,1.38-2.95,1.97c-0.96,0.59-2.12,1.28-3.47,2.05c0.88,1.09,1.74,2.17,2.59,3.22c0.85,1.06,1.72,2.13,2.6,3.22
			l-3.98,2.85c-1.99-2.78-3.65-4.83-4.99-6.16c-1.34-1.33-2.48-2.26-3.42-2.78s-1.79-0.84-2.55-0.96l-1.97-2.74l38.23-27.38
			c1.26-0.9,2.39-1.69,3.39-2.36s2.11-1.29,3.31-1.87c-0.79-0.96-1.54-1.92-2.28-2.88c-0.73-0.96-1.49-1.92-2.28-2.88l3.88-2.78
			l13.83,19.31L201.41,796.38z"/>
		<path d="M174.34,744.96c2.65,4.74,3.96,9.66,3.92,14.75c-0.04,5.09-1.37,9.86-3.99,14.31c-2.62,4.45-6.44,8.07-11.45,10.88
			c-5.35,2.99-10.78,4.57-16.3,4.72c-5.52,0.15-10.59-1.01-15.22-3.48c-4.63-2.48-8.29-6.12-10.99-10.92
			c-2.65-4.74-3.93-9.67-3.82-14.8s1.45-9.92,4.02-14.39c2.57-4.46,6.33-8.08,11.27-10.85c5.21-2.92,10.61-4.45,16.17-4.59
			c5.57-0.14,10.69,1.02,15.35,3.48C167.97,736.52,171.65,740.16,174.34,744.96z M169.82,746.43c-2.01-3.59-4.62-5.86-7.82-6.83
			c-3.21-0.96-6.69-0.99-10.45-0.08s-7.44,2.36-11.03,4.37c-3.05,1.71-5.88,3.67-8.5,5.9c-2.62,2.23-4.79,4.62-6.52,7.18
			c-1.72,2.56-2.75,5.21-3.09,7.94s0.25,5.44,1.76,8.15c1.97,3.52,4.6,5.83,7.88,6.93s6.84,1.26,10.68,0.49s7.62-2.2,11.34-4.28
			c4.2-2.35,7.85-5.15,10.97-8.41c3.11-3.25,5.19-6.73,6.23-10.43S171.83,750.02,169.82,746.43z"/>
		<path d="M149.98,693.6c0.67,1.66,1.12,3.44,1.35,5.35c0.23,1.92-0.04,3.89-0.81,5.92c-0.77,2.03-2.29,4-4.57,5.93
			c-2.28,1.93-5.57,3.76-9.89,5.51l-31.38,12.45l3.47,8.26l-4.64,1.88c-0.83-1.84-2.3-3.46-4.42-4.87c-2.12-1.4-4.64-2.41-7.57-3.03
			c-2.93-0.61-5.87-0.66-8.84-0.12l-1.48-3.67l15.1-6.12l-7.34-18.13l4.21-1.7l7.55,18.04l30.08-11.93
			c3.24-1.31,5.88-2.69,7.93-4.15c2.05-1.46,3.4-3.03,4.05-4.72c0.66-1.69,0.59-3.5-0.2-5.45c-0.82-2.01-2.15-3.67-4.02-4.97
			c-1.86-1.3-4.08-2.22-6.65-2.77l1.19-3.88c3.01,0.62,5.52,1.43,7.51,2.42c1.99,0.99,3.62,2.07,4.89,3.23s2.24,2.32,2.91,3.47
			C149.12,691.73,149.64,692.73,149.98,693.6z"/>
		<path d="M127.82,641.37c-0.61-2.33-1.62-3.79-3.02-4.38c-1.4-0.6-3.15-0.7-5.25-0.31s-4.51,0.94-7.21,1.65l-15.76,4.14
			c-6.46,1.7-11.02,4-13.71,6.91c-2.68,2.91-3.41,6.57-2.17,10.98c0.8,2.76,2.2,5.3,4.17,7.63c1.98,2.33,4.19,4.05,6.65,5.17
			l33.21-8.72c1.5-0.39,2.84-0.71,4.03-0.94c1.18-0.23,2.44-0.4,3.78-0.51c-0.39-1.18-0.76-2.35-1.1-3.5
			c-0.34-1.15-0.71-2.32-1.1-3.5l4.62-1.21l6.03,22.97l-3.38,0.89c-0.61-2.33-1.62-3.79-3.02-4.38c-1.4-0.59-3.16-0.71-5.27-0.36
			c-2.11,0.36-4.52,0.89-7.22,1.6l-53.25,13.98c-1.2,0.31-2.35,0.6-3.45,0.84c-1.1,0.25-2.42,0.5-3.96,0.74
			c0.43,1.33,0.86,2.64,1.27,3.94c0.42,1.29,0.85,2.61,1.28,3.94l-4.73,1.24c-0.87-3.3-1.69-5.83-2.48-7.59
			c-0.78-1.76-1.52-3.05-2.22-3.87s-1.38-1.42-2.04-1.81l-0.86-3.26L86,674.62c-1.86-1.28-3.6-2.8-5.24-4.58
			c-1.63-1.78-3.07-3.69-4.33-5.72c-1.26-2.04-2.16-4.11-2.71-6.21c-1.71-6.53-0.91-11.78,2.43-15.74c3.33-3.96,9.3-7.12,17.92-9.46
			l20.91-5.61c1.5-0.39,2.84-0.72,4.01-0.99c1.17-0.27,2.43-0.46,3.76-0.57c-0.39-1.18-0.76-2.35-1.1-3.5s-0.71-2.32-1.1-3.5
			l4.62-1.21l6.03,22.97L127.82,641.37z"/>
		<path d="M53.99,587.15l-10.85,14.3c-1.23,1.62-2.41,2.59-3.55,2.9c-1.14,0.32-2.11,0.31-2.93-0.03s-1.36-0.65-1.62-0.93
			c-0.18-0.21-0.48-0.69-0.92-1.42c-0.43-0.73-0.57-1.65-0.42-2.76s1.06-2.3,2.71-3.58l14.56-11.43L53.99,587.15z M123.55,585.05
			c0.58,5.32-0.15,10.26-2.19,14.82s-5.22,8.32-9.54,11.29s-9.6,4.8-15.85,5.48c-5.4,0.59-10.58-0.07-15.56-1.99
			c-4.97-1.92-9.14-4.91-12.52-9s-5.38-9.01-6.01-14.8c-0.35-3.24-0.16-6.32,0.57-9.25s2.04-5.59,3.93-7.98
			c1.89-2.39,4.36-4.38,7.43-5.96s6.76-2.61,11.08-3.08l5.14,40.66c5.86-0.64,10.94-1.84,15.24-3.6c4.3-1.76,7.5-4.2,9.62-7.32
			s2.93-6.92,2.44-11.39c-0.26-2.39-0.95-4.79-2.08-7.21c-1.12-2.41-2.53-4.62-4.24-6.62c-1.7-2-3.51-3.56-5.43-4.68l2.01-3.03
			c3.47,1.73,6.33,3.95,8.58,6.67s3.97,5.58,5.15,8.57C122.53,579.62,123.26,582.43,123.55,585.05z M85.14,605.41l-3.22-29.51
			c-2.78,0.3-5.41,1-7.91,2.09s-4.47,2.65-5.93,4.69c-1.46,2.03-2.02,4.55-1.69,7.56c0.49,4.48,2.23,8.05,5.21,10.73
			C74.59,603.65,79.1,605.13,85.14,605.41z"/>
		<path d="M149.56,519.35l-3.49-0.12c0.08-2.4-0.46-4.09-1.63-5.06s-2.82-1.57-4.95-1.8c-2.13-0.23-4.59-0.39-7.38-0.48l-17.45-0.59
			c2.26,2.1,3.98,4.64,5.16,7.63s1.71,6.35,1.58,10.07c-0.16,4.81-1.53,9.15-4.11,13.02s-6.13,6.9-10.67,9.07
			c-4.54,2.18-9.79,3.16-15.77,2.96c-6.51-0.22-12.13-1.75-16.85-4.59s-8.34-6.57-10.86-11.2c-2.52-4.63-3.69-9.69-3.5-15.2
			c0.11-3.26,0.64-6.21,1.58-8.86c0.94-2.65,1.45-4.94,1.51-6.88c0.03-0.85-0.08-1.65-0.33-2.4s-0.71-1.44-1.39-2.08l0.11-3.26
			l76.67,2.48c1.55,0.05,2.93,0.12,4.13,0.2c1.2,0.08,2.46,0.26,3.77,0.54c-0.04-1.24-0.05-2.47-0.05-3.67s-0.02-2.43-0.05-3.67
			l4.77,0.16L149.56,519.35z M115.84,524.61c0.09-2.56-0.53-5.04-1.84-7.46c-1.32-2.41-3.03-4.43-5.15-6.06l-30.48-1.03
			c-3.1-0.11-5.69,0.23-7.78,1.02c-2.08,0.79-3.68,2.13-4.79,4.03s-1.73,4.52-1.84,7.86c-0.13,3.72,0.81,6.98,2.81,9.76
			c2,2.79,4.86,4.98,8.57,6.58c3.71,1.6,8.09,2.49,13.13,2.66c4.96,0.17,9.49-0.4,13.57-1.7s7.37-3.28,9.87-5.96
			C114.4,531.65,115.72,528.41,115.84,524.61z"/>
		<path d="M127.47,468.35c-0.77,4.12-2.18,7.43-4.23,9.93s-5.03,4.11-8.96,4.84s-9.01,0.5-15.27-0.67l-20.37-3.81
			c-1.22-0.23-2.44-0.47-3.65-0.74s-2.45-0.64-3.7-1.11c-0.17,1.31-0.36,2.64-0.57,3.98s-0.4,2.67-0.57,3.98l-4.69-0.88l0.66-3.55
			c0.61-3.28,0.74-5.72,0.37-7.33c-0.37-1.61-0.86-2.9-1.46-3.89l0.62-3.32l34.9,6.53c6.56,1.23,11.64,1.21,15.23-0.05
			c3.59-1.26,5.77-4.15,6.54-8.66c0.47-2.91,0.09-5.85-1.14-8.8c-1.22-2.95-2.87-5.45-4.93-7.5l-29.4-5.5
			c-1.83-0.34-3.41-0.68-4.73-1s-2.61-0.72-3.86-1.2c-0.18,1.39-0.38,2.77-0.6,4.15s-0.42,2.76-0.6,4.15l-4.69-0.88l0.66-3.55
			c0.61-3.28,0.74-5.72,0.37-7.33c-0.37-1.61-0.86-2.9-1.46-3.89l0.62-3.32l43.23,8.21c1.22,0.23,2.93,0.59,5.13,1.08
			s4.04,0.96,5.54,1.39c0.18-1.39,0.36-2.77,0.54-4.16s0.36-2.77,0.54-4.16l4.8,0.9l-3.06,16.36c-1.34-0.01-2.59-0.07-3.76-0.17
			c-1.17-0.1-2.25-0.2-3.26-0.31c1.92,2.81,3.43,6.05,4.51,9.73C127.87,461.48,128.1,465,127.47,468.35z"/>
		<path d="M144.73,402.3c-1.75,5.06-4.52,9.21-8.32,12.46s-8.28,5.29-13.45,6.12c-5.17,0.84-10.73,0.23-16.67-1.83
			c-5.13-1.78-9.54-4.59-13.21-8.45c-3.67-3.86-6.16-8.35-7.46-13.49c-1.3-5.13-1-10.45,0.9-15.95c1.07-3.08,2.56-5.79,4.47-8.12
			c1.92-2.33,4.24-4.18,6.97-5.53s5.82-2.09,9.26-2.21c3.45-0.12,7.23,0.53,11.33,1.95l-12.74,38.95
			c5.57,1.93,10.68,3.02,15.31,3.27c4.64,0.25,8.58-0.58,11.83-2.5c3.25-1.91,5.61-5,7.08-9.25c0.79-2.27,1.19-4.74,1.21-7.4
			s-0.31-5.26-1-7.8c-0.68-2.53-1.65-4.72-2.91-6.55l3.11-1.88c2.39,3.05,4.03,6.28,4.89,9.7c0.87,3.42,1.2,6.74,0.99,9.95
			C146.13,396.95,145.59,399.81,144.73,402.3z M101.31,404.26l9.71-28.05c-2.64-0.91-5.32-1.41-8.04-1.49s-5.18,0.49-7.36,1.7
			c-2.18,1.21-3.77,3.25-4.76,6.11c-1.47,4.25-1.43,8.23,0.12,11.93C92.52,398.16,95.97,401.43,101.31,404.26z"/>
		<path d="M166.08,352.22c-1.74,3.47-3.75,6.33-6.04,8.56s-4.46,3.93-6.51,5.08l3.85,1.41l-2.19,4.37l-18.22-8.33l1.61-3.23
			c2.92,1.29,5.87,1.76,8.85,1.43c2.99-0.33,5.67-1.33,8.07-2.99c2.39-1.67,4.25-3.82,5.57-6.46c0.9-1.8,1.49-3.72,1.77-5.75
			s0.1-3.94-0.52-5.73c-0.62-1.79-1.87-3.15-3.75-4.09c-1.94-0.97-3.84-1.21-5.7-0.7c-1.86,0.5-3.74,1.45-5.65,2.84
			c-1.91,1.39-3.82,2.95-5.73,4.69c-1.87,1.67-3.78,3.32-5.73,4.95c-1.94,1.63-3.98,3.02-6.12,4.17c-2.13,1.15-4.36,1.79-6.69,1.93
			c-2.32,0.14-4.81-0.45-7.44-1.77c-1.46-0.73-2.92-1.8-4.37-3.23c-1.46-1.42-2.64-3.18-3.54-5.28s-1.28-4.55-1.15-7.34
			c0.14-2.79,1.09-5.96,2.86-9.5c0.94-1.87,2.29-3.8,4.06-5.78s4.06-3.61,6.87-4.89l-4.06-1.77l2.19-4.37l18.22,9.11l-1.67,3.33
			c-2.5-1.07-5.12-1.69-7.86-1.85c-2.74-0.15-5.33,0.33-7.76,1.46s-4.39,3.19-5.88,6.17c-1.6,3.19-2.05,6.09-1.35,8.69
			c0.69,2.6,2.08,4.42,4.17,5.47c2.15,1.08,4.28,1.29,6.38,0.65s4.21-1.78,6.32-3.41c2.12-1.63,4.27-3.42,6.45-5.36
			c2.43-2.08,4.93-4.04,7.5-5.88s5.24-3.06,8.02-3.67c2.78-0.61,5.73-0.13,8.85,1.43c3.47,1.74,5.91,4.06,7.31,6.97
			c1.41,2.92,1.96,6.01,1.67,9.29C168.46,346.1,167.57,349.24,166.08,352.22z"/>
		<path d="M145.5,236.28c-1.62,1.98-2.37,3.75-2.25,5.31c0.13,1.56,0.67,2.88,1.63,3.97s1.87,1.98,2.7,2.67l22.68,18.6
			c3.36,2.76,6.8,5.2,10.32,7.33c3.52,2.13,7.06,3.6,10.61,4.41s7.1,0.58,10.64-0.68c3.54-1.26,6.96-3.9,10.26-7.92
			c3.54-4.32,5.41-8.68,5.61-13.09c0.2-4.4-0.97-8.73-3.52-12.97c-2.54-4.24-6.13-8.31-10.76-12.21l-25.07-21.01
			c-1.2-0.98-2.33-1.96-3.39-2.93c-1.06-0.97-2.02-1.85-2.87-2.65c-0.83,1.13-1.64,2.25-2.44,3.34c-0.8,1.1-1.61,2.21-2.44,3.34
			l-3.96-3.25L177,191.81l2.97,2.43c-1.81,2.33-2.58,4.31-2.31,5.94s1.18,3.15,2.73,4.57c1.55,1.42,3.37,3.04,5.49,4.87l20.74,17.3
			c3.9,3.2,7.28,6.67,10.13,10.41c2.85,3.75,4.88,7.69,6.09,11.84c1.21,4.15,1.34,8.43,0.4,12.82c-0.95,4.39-3.26,8.84-6.95,13.34
			c-3.94,4.8-7.88,8.32-11.82,10.56s-8.03,3.25-12.27,3.03c-4.24-0.21-8.71-1.55-13.42-4.01c-4.71-2.46-9.85-5.97-15.44-10.55
			l-18.27-14.98c-1.56-1.28-3.37-2.84-5.43-4.67c-2.06-1.84-3.63-3.25-4.72-4.25c-0.83,1.13-1.67,2.25-2.52,3.35
			c-0.85,1.11-1.7,2.22-2.52,3.35l-3.87-3.17l16.53-20.16L145.5,236.28z"/>
		<path d="M263.44,226.56c-3.59,3.09-7.6,4.97-12.03,5.65s-8.92,0.07-13.48-1.84s-8.79-5.13-12.68-9.67
			c-4.15-4.83-6.84-9.93-8.09-15.3c-1.24-5.38-1.05-10.6,0.57-15.68c1.62-5.08,4.61-9.49,8.97-13.23c1.94-1.67,4.08-3.07,6.43-4.22
			c2.34-1.14,4.35-1.87,6.03-2.19l-10.39-12.09c-0.81-0.94-1.57-1.85-2.27-2.73c-0.7-0.88-1.5-1.96-2.4-3.24
			c-1.01,0.97-2,1.93-2.98,2.87s-1.97,1.9-2.98,2.87l-3.19-3.71c2.59-2.23,4.49-4.06,5.7-5.51c1.21-1.45,2.03-2.67,2.46-3.65
			c0.43-0.99,0.68-1.86,0.74-2.63l2.56-2.2l49.24,57.29c0.81,0.94,1.59,1.91,2.34,2.9c0.75,0.99,1.57,2.13,2.47,3.41
			c1.01-0.97,2-1.92,2.98-2.87c0.98-0.94,1.97-1.9,2.98-2.87l3.19,3.71l-12.62,10.85c-0.94-0.73-1.76-1.43-2.48-2.09
			s-1.42-1.32-2.08-1.97c-0.08,3.24-0.86,6.44-2.33,9.6C268.59,221.19,266.38,224.03,263.44,226.56z M262.9,219.51
			c1.94-1.67,3.42-3.91,4.43-6.72c1.01-2.81,1.46-5.6,1.33-8.36c-0.67-0.66-1.34-1.38-2.02-2.17s-1.43-1.66-2.24-2.6l-21.76-25.5
			c-2.32,0.15-4.54,0.7-6.64,1.64c-2.11,0.94-4.04,2.17-5.81,3.69c-2.94,2.53-4.77,5.58-5.48,9.16c-0.71,3.58-0.31,7.38,1.2,11.4
			c1.51,4.02,4.1,8.04,7.75,12.06c3.2,3.49,6.53,6.2,9.99,8.14s6.84,2.9,10.14,2.87C257.1,223.09,260.13,221.88,262.9,219.51z"/>
		<path d="M318.07,185.9c-4.53,2.86-9.29,4.37-14.27,4.54c-4.99,0.17-9.76-1.04-14.33-3.62c-4.57-2.58-8.52-6.53-11.88-11.84
			c-2.9-4.59-4.58-9.54-5.04-14.85c-0.46-5.31,0.4-10.37,2.59-15.19s5.74-8.79,10.66-11.89c2.76-1.74,5.61-2.92,8.57-3.55
			c2.95-0.63,5.92-0.62,8.9,0.03c2.98,0.65,5.85,2,8.62,4.06s5.31,4.93,7.63,8.6l-34.28,22.46c3.15,4.99,6.46,9.03,9.92,12.12
			c3.46,3.09,7.06,4.9,10.8,5.44c3.73,0.54,7.5-0.4,11.31-2.8c2.03-1.28,3.89-2.96,5.57-5.03c1.68-2.07,3.04-4.3,4.09-6.71
			s1.66-4.71,1.82-6.93l3.61,0.48c-0.03,3.87-0.78,7.42-2.24,10.63c-1.46,3.22-3.27,6.01-5.44,8.39
			C322.5,182.6,320.3,184.5,318.07,185.9z M282.93,160.32l25.1-15.84c-1.49-2.36-3.27-4.42-5.35-6.19
			c-2.08-1.76-4.35-2.85-6.81-3.27c-2.47-0.42-4.98,0.18-7.54,1.8c-3.81,2.4-6.26,5.53-7.36,9.39
			C279.87,150.07,280.52,154.77,282.93,160.32z"/>
		<path d="M384.11,151.59c-6.01-5.98-12.04-11.93-18.1-17.85c-6.06-5.92-12.09-11.96-18.08-18.11c-1.92-1.92-3.82-3.86-5.71-5.83
			c-1.89-1.97-3.76-3.97-5.59-6c-1.84-2.03-3.69-4.06-5.56-6.07c0.31,0.8,0.6,1.6,0.88,2.41c0.27,0.81,0.57,1.61,0.88,2.41
			c0.94,2.63,2.08,5.79,3.4,9.48s2.72,7.65,4.2,11.86c1.48,4.21,3,8.41,4.55,12.59c1.55,4.19,3.01,8.13,4.38,11.85
			c0.55,1.62,1.12,3.23,1.7,4.83c0.58,1.61,1.07,3.12,1.47,4.55c1.34-0.61,2.67-1.21,3.98-1.81c1.31-0.59,2.64-1.2,3.98-1.81
			l1.87,4.77l-20.71,8.1l-1.4-3.58c2.21-0.95,3.67-2.08,4.36-3.39c0.69-1.31,0.89-2.78,0.59-4.42c-0.31-1.63-0.76-3.33-1.37-5.09
			l-17.27-50.24c-0.49-1.47-1-2.94-1.53-4.4s-1.03-2.89-1.49-4.29c-1.27,0.58-2.55,1.14-3.84,1.69s-2.57,1.11-3.84,1.69l-1.82-4.66
			l16.59-6.49l35.47,35.75c1.79,1.8,3.56,3.61,5.31,5.42s3.54,3.62,5.36,5.4c1.82,1.79,3.64,3.62,5.46,5.49l0.22-0.08
			c0.03-2.26,0.06-4.96,0.08-8.09c0.02-3.13,0.02-5.82-0.02-8.05c0.07-9.19,0.26-18.45,0.57-27.78s0.46-18.91,0.45-28.73l16.04-6.27
			l1.4,3.58c-1.83,0.64-3.18,1.56-4.04,2.77c-0.86,1.21-1.21,2.78-1.03,4.72c0.17,1.93,0.91,4.35,2.21,7.26l22.11,48.22
			c0.62,1.17,1.16,2.34,1.62,3.49c0.45,1.16,0.86,2.21,1.23,3.14c1.27-0.58,2.57-1.15,3.89-1.71c1.32-0.56,2.62-1.13,3.89-1.71
			l1.87,4.77l-24.28,9.5l-1.4-3.58c2.21-0.95,3.66-2.14,4.35-3.58s0.79-3.14,0.31-5.12c-0.48-1.98-1.33-4.31-2.55-7l-16.16-34.93
			c-0.52-1.13-1.05-2.25-1.57-3.38c-0.52-1.13-1.05-2.26-1.57-3.38c-0.52-1.13-1.05-2.25-1.57-3.38c-0.02,0.59-0.04,1.22-0.07,1.9
			s-0.02,1.38,0.02,2.12l-0.82,69.81L384.11,151.59z"/>
		<path d="M463.14,93.43l-1-8.09l41.01-5.05l0.94,7.62L463.14,93.43z"/>
	</g>
</g>
</svg>
